<?xml version="1.0" encoding="UTF-8"?> <svg xmlns="http://www.w3.org/2000/svg" xmlns:xlink="http://www.w3.org/1999/xlink" id="allgives_logo_vector" width="773.41" height="136.03" viewBox="0 0 773.41 136.03"> <defs> <style> .cls-1, .cls-2, .cls-3, .cls-4, .cls-5, .cls-6, .cls-7, .cls-8 { fill-rule: evenodd; } .cls-1 { fill: url(#linear-gradient); } .cls-2 { fill: #ff49ff; } .cls-3 { fill: #8a6fff; } .cls-4 { fill: #1f86d7; } .cls-5 { fill: #ff98ff; } .cls-6 { fill: #53d6ff; } .cls-7 { fill: #ff7dff; } .cls-8 { fill: #fff6ff; } </style> <linearGradient id="linear-gradient" x1="6871.59" y1="3236.345" x2="7463.72" y2="3236.345" gradientUnits="userSpaceOnUse"> <stop offset="0" stop-color="#ff7cff"></stop> <stop offset="0.475" stop-color="#57dcff"></stop> <stop offset="1" stop-color="#896eff"></stop> </linearGradient> </defs> <path id="all.Gives_copy" data-name="all.Gives copy" class="cls-1" d="M6944,3277.95h11.28l-20.18-79.8h-11.28l-52.21,79.8h12.31l12.65-19.95h42.64Zm-41.61-29.07,25.08-39.33,9.46,39.33h-34.54Zm81.13,29.76a22.305,22.305,0,0,0,8.09-1.37l1.14-8.89a15.27,15.27,0,0,1-5.58,1.02,7.824,7.824,0,0,1-5.59-1.82,6.723,6.723,0,0,1-1.94-5.13,13.669,13.669,0,0,1,.34-2.97l13.34-66.12h-10.94l-13.34,66.24a24.713,24.713,0,0,0-.46,4.79q0,6.615,3.99,10.43t10.95,3.82h0Zm38.15,0a22.4,22.4,0,0,0,8.1-1.37l1.14-8.89a15.284,15.284,0,0,1-5.59,1.02,7.814,7.814,0,0,1-5.58-1.82,6.687,6.687,0,0,1-1.94-5.13,13.078,13.078,0,0,1,.34-2.97l13.34-66.12h-10.95l-13.33,66.24a23.955,23.955,0,0,0-.46,4.79q0,6.615,3.99,10.43t10.94,3.82h0Zm30.86-.12a5.926,5.926,0,0,0,4.34-1.82,6.082,6.082,0,0,0,1.82-4.45,5.9,5.9,0,0,0-1.82-4.39,6.068,6.068,0,0,0-4.34-1.76,5.843,5.843,0,0,0-4.27,1.76,5.972,5.972,0,0,0-1.77,4.39,6.158,6.158,0,0,0,1.77,4.45,5.71,5.71,0,0,0,4.27,1.82h0Zm66.57-20.06q-6.615,5.475-16.3,5.47a25.049,25.049,0,0,1-11.97-2.91,21.554,21.554,0,0,1-8.73-8.6,30.5,30.5,0,0,1,.06-27.48,22.974,22.974,0,0,1,9.24-9.17,28.788,28.788,0,0,1,34.2,5.75l11.85-10.94a37.748,37.748,0,0,0-14.36-10.26,49.34,49.34,0,0,0-19.04-3.54,47.145,47.145,0,0,0-22.57,5.36,39.508,39.508,0,0,0-15.68,14.88,41.813,41.813,0,0,0-5.64,21.72q0,12.645,5.47,21.83a36.3,36.3,0,0,0,14.71,13.96,43.423,43.423,0,0,0,20.29,4.79q13.11,0,21.43-6.16v4.79h13.91V3236.8H7119.1v21.66Zm81.86-45.49v-14.82h-46.17v14.82h13.91v50.16h-13.91v14.82h46.17v-14.82h-13.79v-50.16h13.79Zm82.91-14.82-24.62,57-24.28-57h-19.95l34.42,79.8h18.24l34.55-79.8h-18.36Zm53.04,64.98v-18.47h37.05V3230.3h-37.05v-17.33h41.96v-14.82h-60.31v79.8h61.79v-14.82h-43.44Zm92.96,16.19q10.935,0,18.58-3.31a25.672,25.672,0,0,0,11.46-8.94,21.876,21.876,0,0,0,3.82-12.49q0-7.98-4.16-12.65a24.681,24.681,0,0,0-9.98-6.84,130.2,130.2,0,0,0-14.93-4.33,66.816,66.816,0,0,1-13.06-3.94c-2.85-1.32-4.27-3.36-4.27-6.1a7.664,7.664,0,0,1,3.7-6.61q3.705-2.505,11.46-2.51,11.055,0,22.12,6.27l5.7-14.02a44.308,44.308,0,0,0-12.77-5.24,61.186,61.186,0,0,0-14.94-1.83q-10.935,0-18.52,3.31a25.276,25.276,0,0,0-11.34,8.95,22.2,22.2,0,0,0-3.77,12.6q0,7.98,4.17,12.76a24.1,24.1,0,0,0,9.97,6.96,130.2,130.2,0,0,0,14.93,4.33c3.96,0.91,7.09,1.75,9.41,2.51a16.883,16.883,0,0,1,5.7,3.02,5.934,5.934,0,0,1,2.22,4.73,7.034,7.034,0,0,1-3.76,6.21q-3.765,2.34-11.63,2.34a45.78,45.78,0,0,1-14.13-2.28,42.4,42.4,0,0,1-12.2-6.04l-6.27,13.91a43,43,0,0,0,14.19,6.67,65.3,65.3,0,0,0,18.3,2.56h0Z" transform="translate(-6871.59 -3167)"></path> <path id="Rounded_Rectangle_9_copy_17" data-name="Rounded Rectangle 9 copy 17" class="cls-2" d="M7566.23,3212.64l62.56,47.14a15.52,15.52,0,0,1-5.66,21.47l-35.66,20.21c-7.57,4.29-14.45-1.14-22-5.49l-35.56-20.51a15.753,15.753,0,0,1-5.79-21.54l20.54-35.51A15.79,15.79,0,0,1,7566.23,3212.64Z" transform="translate(-6871.59 -3167)"></path> <path id="Rounded_Rectangle_9_copy_16" data-name="Rounded Rectangle 9 copy 16" class="cls-3" d="M7602.23,3174.9l20.53,35.51a15.741,15.741,0,0,1-5.78,21.54l-73.06,33.49a16.069,16.069,0,0,1-16-15.85l-0.25-40.97c-0.06-8.7,9.87-14.64,17.43-18.99l35.56-20.5A15.79,15.79,0,0,1,7602.23,3174.9Z" transform="translate(-6871.59 -3167)"></path> <path id="Rounded_Rectangle_9_copy_15" data-name="Rounded Rectangle 9 copy 15" class="cls-4" d="M7644.99,3223.66v41a15.78,15.78,0,0,1-15.79,15.77h-41.07a15.78,15.78,0,0,1-15.79-15.77l2.39-79.39a15.811,15.811,0,0,1,21.58-5.78l35.56,20.51C7639.42,3204.35,7644.99,3214.94,7644.99,3223.66Z" transform="translate(-6871.59 -3167)"></path> <path id="Rounded_Rectangle_9_copy_20" data-name="Rounded Rectangle 9 copy 20" class="cls-5" d="M7624.42,3280.43h-36.29a15.78,15.78,0,0,1-15.79-15.77l1.4-46.37,55.05,41.49A15.522,15.522,0,0,1,7624.42,3280.43Z" transform="translate(-6871.59 -3167)"></path> <path id="Rounded_Rectangle_9_copy_19" data-name="Rounded Rectangle 9 copy 19" class="cls-6" d="M7622.76,3210.41a15.741,15.741,0,0,1-5.78,21.54l-44.27,20.3,2.02-66.98a15.811,15.811,0,0,1,21.58-5.78l12.87,7.43Z" transform="translate(-6871.59 -3167)"></path> <path id="Rounded_Rectangle_9_copy_18" data-name="Rounded Rectangle 9 copy 18" class="cls-7" d="M7543.92,3265.44a16.069,16.069,0,0,1-16-15.85l-0.01-2.22,16.75-28.96a15.79,15.79,0,0,1,21.57-5.77l35.14,26.47Z" transform="translate(-6871.59 -3167)"></path> <path id="Rounded_Rectangle_9_copy_21" data-name="Rounded Rectangle 9 copy 21" class="cls-8" d="M7601.37,3239.11l-28.66,13.14,1.03-33.96Z" transform="translate(-6871.59 -3167)"></path> </svg> 