<?xml version="1.0" encoding="UTF-8"?> <svg xmlns="http://www.w3.org/2000/svg" xmlns:xlink="http://www.w3.org/1999/xlink" width="208" height="198" viewBox="0 0 208 198"> <defs> <style> .cls-1 { fill: #fff; fill-rule: evenodd; filter: url(#filter); } </style> <filter id="filter" x="5279" y="5385" width="208" height="198" filterUnits="userSpaceOnUse"> <feGaussianBlur result="blur" stdDeviation="19.667" in="SourceAlpha"></feGaussianBlur> <feComposite result="composite"></feComposite> <feComposite result="composite-2"></feComposite> <feComposite result="composite-3"></feComposite> <feFlood result="flood" flood-color="#fff" flood-opacity="0.17"></feFlood> <feComposite result="composite-4" operator="in" in2="composite-3"></feComposite> <feBlend result="blend" in2="SourceGraphic"></feBlend> <feBlend result="blend-2" in="SourceGraphic"></feBlend> </filter> </defs> <path id="icon_share" class="cls-1" d="M5426.51,5470l-25.69-25.7a3.21,3.21,0,0,0-5.47,2.26v12.85h-11.24q-35.79,0-43.92,20.23-2.655,6.72-2.66,16.71,0,8.325,6.38,22.63c0.1,0.24.27,0.64,0.52,1.21s0.48,1.07.68,1.5a5.7,5.7,0,0,0,.65,1.11,1.732,1.732,0,0,0,1.41.85,1.49,1.49,0,0,0,1.18-.5,1.9,1.9,0,0,0,.42-1.26,10.791,10.791,0,0,0-.12-1.33,9.145,9.145,0,0,1-.13-1.17q-0.255-3.42-.25-6.18a42.372,42.372,0,0,1,.88-9.08,27.713,27.713,0,0,1,2.43-6.95,17.472,17.472,0,0,1,4.02-5.07,23.522,23.522,0,0,1,5.29-3.49,28.989,28.989,0,0,1,6.68-2.13,63.035,63.035,0,0,1,7.73-1.08q3.885-.3,8.81-0.3h11.24v12.85a3.189,3.189,0,0,0,5.47,2.25l25.69-25.69A3.14,3.14,0,0,0,5426.51,5470Z" transform="translate(-5279 -5385)"></path> </svg> 