<?xml version="1.0" encoding="UTF-8"?> <svg xmlns="http://www.w3.org/2000/svg" width="308" height="346.44" viewBox="0 0 308 346.44"> <defs> <style> .cls-1 { fill: #132148; fill-rule: evenodd; opacity: 0.2; } </style> </defs> <path id="_2" data-name="2" class="cls-1" d="M5240.17,4130.79q-61.815,0-101.42,21.25a176.843,176.843,0,0,0-64.72,59.24l10.95,7.73q18.015-21.255,38.64-32.2,20.6-10.935,47.65-10.94,28.965,0,43.14,15.13t14.17,47.97q0,37.995-19.32,73.09a297.577,297.577,0,0,1-45.08,62.13q-25.755,27.045-62.46,59.89-30.9,28.98-28.33,26.4V4474h211.85q81.765,0,95.95,3.22-2.595-36.705-2.58-124.28H5363.8q-1.935,10.965-5.15,16.42-3.24,5.49-11.91,7.73-8.7,2.265-26.08,2.26H5175.13q19.32-16.74,65.68-43.15,37.335-21.885,59.88-37.99a173.689,173.689,0,0,0,38.64-37.67q16.1-21.57,16.1-47.33,0-38.625-30.91-60.53-30.915-21.87-84.35-21.89h0Z" transform="translate(-5073.19 -4130.78)"></path> </svg> 