<?xml version="1.0" encoding="UTF-8"?> <svg xmlns="http://www.w3.org/2000/svg" width="296.22" height="440.47" viewBox="0 0 296.22 440.47"> <defs> <style> .cls-1 { fill: #132148; fill-rule: evenodd; opacity: 0.2; } </style> </defs> <path id="_3" data-name="3" class="cls-1" d="M5626.93,4179.79q-56.67,0-90.79,21.89-34.14,21.9-56.02,58.6l11.59,6.44q14.8-21.885,36.38-33.8a95.025,95.025,0,0,1,46.68-11.92q27.69,0,42.82,14.17t15.14,41.85q0,49.6-49.59,81.78c-3-.42-6.44-0.85-10.3-1.29a113.285,113.285,0,0,0-12.23-.64q-10.32,0-16.75,3.54-6.435,3.555-6.43,11.27c0,3.86,1.06,6.55,3.21,8.05s5.37,2.25,9.66,2.25a45.7,45.7,0,0,0,15.14-2.57q7.4-2.565,20.28-8.37,30.9,2.58,48.94,26.72,18.015,24.15,18.03,62.14,0,45.075-27.37,77.59t-68.26,49.9q-40.89,17.4-81.45,19.32v13.52a500.046,500.046,0,0,0,139.73-19.96q68.9-19.965,112.69-56.98,43.77-37.02,43.78-84.04,0-45.7-41.85-72.44-41.865-26.715-112.69-26.72c-9.88,0-17.38.22-22.54,0.64q73.41-10.29,113.66-39.6,40.23-29.295,40.24-66.64,0-34.77-34.13-54.74-34.125-19.95-87.57-19.96h0Z" transform="translate(-5475.59 -4179.78)"></path> </svg> 