<?xml version="1.0" encoding="UTF-8"?> <svg xmlns="http://www.w3.org/2000/svg" xmlns:xlink="http://www.w3.org/1999/xlink" width="2181" height="919" viewBox="0 0 2181 919"> <defs> <style> .cls-1 { fill: none; stroke-width: 4px; fill-rule: evenodd; stroke: url(#linear-gradient); } </style> <linearGradient id="linear-gradient" y1="460.547" x2="2181" y2="460.547" gradientUnits="userSpaceOnUse"> <stop offset="0" stop-color="#5d30ff"></stop> <stop offset="1" stop-color="#ffa9e7"></stop> </linearGradient> </defs> <path id="curve_2" class="cls-1" d="M2181,3c-24.82,37.475-49.38,69.9-73.81,97.773-32.69,37.015-53.83,51.735-88.89,90.014-44.81,48.163-63.6,83.98-92.8,109.359-34.93,29.854-54.24,17.554-67.02.5-12.82-17.143-19.22-39.28-29.25-31.145-26.43,21.555-67.6,243.613-99.32,266.034-21.68,14.831-27.25-67.432-101.94-24.968-35.5,19.53-58.08,50.863-104.11,74.426-48.24,24.132-67.93,11.4-105.85,30.41-52.65,25.632-69.07,76.97-107.18,92.245-48.71,18.935-75.4-45.185-108.05-34.482-55.84,17.78-80.7,237.7-108.5,244.749-33.79,8.343-70.84-299.489-108.515-292.863-28.308,4.708-47.326,187.008-108.1,194.655-37.591,4.362-64.755-61.428-107.247-59.169-50.7,2.215-68.685,100-105.964,99.034C621.98,858,596.871,728.041,560.21,724.132c-43.857-4.907-76.734,173.085-102.1,168.071a6.479,6.479,0,0,1-2.717-1.331,13.9,13.9,0,0,1-2.6-2.818,44.306,44.306,0,0,1-4.9-9.717c-3.149-8.165-6.1-19.531-9-33.082-5.807-27.1-11.434-62.939-18.113-99.421-13.337-73.018-30.972-148.388-62.191-162.85-56.4-27.767-106.69,173.795-220.327,108.848-24.212-14.286-48.111-39.268-71.283-72.131S21.367,546.1,0,500.4"></path> </svg> 