<?xml version="1.0" encoding="UTF-8"?> <svg xmlns="http://www.w3.org/2000/svg" width="180.81" height="120.62" viewBox="0 0 180.81 120.62"> <defs> <style> .cls-1 { fill: none; stroke: #19b478; stroke-width: 2px; fill-rule: evenodd; opacity: 0.17; } </style> </defs> <path id="sub_envelope" class="cls-1" d="M5051.22,2412.56h0.04a6.8,6.8,0,0,0,3.73-1.1l0.29-.19c0.06-.04.13-0.07,0.2-0.12l3.38-2.79,80.69-66.55a0.937,0.937,0,0,0-.75-0.39H4963.2a0.916,0.916,0,0,0-.58.21l84.42,69.54A6.632,6.632,0,0,0,5051.22,2412.56Zm-88.96-61.71v98.64l60.48-48.82ZM5079.32,2401l60.42,48.52v-98.34Zm-19.21,15.84a14.39,14.39,0,0,1-17.73.01l-13.86-11.42-66.26,53.49v0.17a0.954,0.954,0,0,0,.95.94H5138.8a0.952,0.952,0,0,0,.94-0.94v-0.16l-66.21-53.16Z" transform="translate(-4960.47 -2340.41)"></path> </svg> 