<?xml version="1.0" encoding="UTF-8"?> <svg xmlns="http://www.w3.org/2000/svg" id="icon_fb" width="37.66" height="37.66" viewBox="0 0 37.66 37.66"> <defs> <style> .cls-1 { fill: #3b46b4; } .cls-1, .cls-2 { fill-rule: evenodd; } .cls-2 { fill: #fff; } </style> </defs> <path id="Rounded_Rectangle_2_copy" data-name="Rounded Rectangle 2 copy" class="cls-1" d="M5334.67,8140.16q7.185-.285,14.35,0a12.681,12.681,0,0,1,11.52,11.51q0.285,7.185,0,14.35a12.691,12.691,0,0,1-11.52,11.52q-7.17.285-14.35,0a12.681,12.681,0,0,1-11.51-11.52q-0.285-7.17,0-14.35a12.672,12.672,0,0,1,11.51-11.51h0Z" transform="translate(-5323.03 -8140.03)"></path> <path id="Forma_1" data-name="Forma 1" class="cls-2" d="M5351.57,8155.08h-2.54c-1.74,0-2.06.68-2.06,2.03v2.8h4.42a0.56,0.56,0,0,1,.42.18,0.589,0.589,0,0,1,.17.42v4.79a0.585,0.585,0,0,1-.59.59h-4.42v11.69q-3.075.09-6.13,0.08v-11.77h-3.78a0.585,0.585,0,0,1-.59-0.59v-4.79a0.593,0.593,0,0,1,.59-0.6h3.78v-3.31c0-4.35,2.74-7.17,6.97-7.17l3.76,0.01a0.585,0.585,0,0,1,.59.59v4.45A0.593,0.593,0,0,1,5351.57,8155.08Z" transform="translate(-5323.03 -8140.03)"></path> </svg> 