<?xml version="1.0" encoding="UTF-8"?> <svg xmlns="http://www.w3.org/2000/svg" id="icon_card" width="42.97" height="29.65" viewBox="0 0 42.97 29.65"> <defs> <style> .cls-1 { fill: #344371; } .cls-1, .cls-2 { fill-rule: evenodd; } .cls-2 { fill: #232e53; } </style> </defs> <path id="Rounded_Rectangle_6" data-name="Rounded Rectangle 6" class="cls-1" d="M4700.55,2058.7h30.97a6,6,0,0,1,6,6v17.64a6,6,0,0,1-6,6h-30.97a6,6,0,0,1-6-6V2064.7A6,6,0,0,1,4700.55,2058.7Z" transform="translate(-4694.56 -2058.69)"></path> <path class="cls-2" d="M4715.88,2076.6h-17.39v-3.15h17.39v3.15Zm-21.33-5.52v-6.38a5.426,5.426,0,0,1,.09-0.81h42.79a5.426,5.426,0,0,1,.09.81v6.38h-42.97Z" transform="translate(-4694.56 -2058.69)"></path> </svg> 