<?xml version="1.0" encoding="UTF-8"?> <svg xmlns="http://www.w3.org/2000/svg" width="35.62" height="35.56" viewBox="0 0 35.62 35.56"> <defs> <style> .cls-1 { fill: #344371; fill-rule: evenodd; } </style> </defs> <path id="icon_authentic" class="cls-1" d="M5111.98,2091.43a17.78,17.78,0,1,1,17.81-17.78A17.818,17.818,0,0,1,5111.98,2091.43Zm0-32.24a14.46,14.46,0,1,0,14.49,14.46A14.487,14.487,0,0,0,5111.98,2059.19Zm7.43,13.06-9.02,6.57a1.664,1.664,0,0,1-.98.32,2.452,2.452,0,0,1-.27-0.02,1.676,1.676,0,0,1-1.09-.68l-2.7-3.84a1.659,1.659,0,1,1,2.72-1.9l1.73,2.45,7.65-5.58A1.66,1.66,0,1,1,5119.41,2072.25Z" transform="translate(-5094.16 -2055.88)"></path> </svg> 