<?xml version="1.0" encoding="UTF-8"?> <svg xmlns="http://www.w3.org/2000/svg" width="41.28" height="22.56" viewBox="0 0 41.28 22.56"> <defs> <style> .cls-1 { fill: #344371; fill-rule: evenodd; } </style> </defs> <path id="icon_shipping" class="cls-1" d="M5523.04,2063.78l-6.63,3.04,0.1-1.44,4.29-1.94c-0.61-.04-1.24-0.06-1.88-0.06-2.37,0-6.38,1.2-10.81,2.96l-14.22-3.75a4.976,4.976,0,0,0-3.91.6l-0.7.44a1.1,1.1,0,0,0-.01,1.86l8.54,5.54c-2.04,1.04-3.98,2.1-5.68,3.12l-4.39-2.33a2.806,2.806,0,0,0-2.32-.12l-0.41.17a1.1,1.1,0,0,0-.55,1.56l2.41,4.29h0a3.466,3.466,0,0,0-1.43,1.89c0,1.34,1.66,1.68,3.12,1.68,2.61,0,37.03-7.88,37.03-15.01C5525.59,2064.86,5524.62,2064.16,5523.04,2063.78Zm-14.52,13.93,7.58-2.67a0.558,0.558,0,0,1,.73.46l0.66,5.68a3.307,3.307,0,0,1-1.89,3.38l-0.71.33a1.089,1.089,0,0,1-1.29-.27l-5.31-6.02A0.554,0.554,0,0,1,5508.52,2077.71Z" transform="translate(-5484.31 -2062.44)"></path> </svg> 