<?xml version="1.0" encoding="UTF-8"?> <svg xmlns="http://www.w3.org/2000/svg" xmlns:xlink="http://www.w3.org/1999/xlink" width="210" height="210" viewBox="0 0 210 210"> <defs> <style> .cls-1 { fill: #fff; fill-rule: evenodd; filter: url(#filter); } </style> <filter id="filter" x="4977" y="5379" width="210" height="210" filterUnits="userSpaceOnUse"> <feGaussianBlur result="blur" stdDeviation="19.667" in="SourceAlpha"></feGaussianBlur> <feComposite result="composite"></feComposite> <feComposite result="composite-2"></feComposite> <feComposite result="composite-3"></feComposite> <feFlood result="flood" flood-color="#fff" flood-opacity="0.17"></feFlood> <feComposite result="composite-4" operator="in" in2="composite-3"></feComposite> <feBlend result="blend" in2="SourceGraphic"></feBlend> <feBlend result="blend-2" in="SourceGraphic"></feBlend> </filter> </defs> <path id="icon_link" class="cls-1" d="M5120.59,5479.17l-17.37,17.37a24.559,24.559,0,0,1-34.73,0,23.79,23.79,0,0,1-3.73-4.96l8.07-8.07a5.97,5.97,0,0,1,1.31-.87,12.075,12.075,0,0,0,3.03,5.21,12.285,12.285,0,0,0,17.37,0l17.36-17.36a12.279,12.279,0,0,0-17.36-17.37l-6.18,6.18a30.839,30.839,0,0,0-15.67-1.71l13.16-13.16A24.565,24.565,0,0,1,5120.59,5479.17Zm-45.92,28.56-6.18,6.18a12.282,12.282,0,0,1-17.37-17.37l17.37-17.37a12.282,12.282,0,0,1,17.36,0,12.1,12.1,0,0,1,3.04,5.21,6.215,6.215,0,0,0,1.31-.87l8.07-8.07a24.086,24.086,0,0,0-3.73-4.95,24.553,24.553,0,0,0-34.74,0l-17.37,17.36a24.565,24.565,0,0,0,34.74,34.74l13.16-13.16A30.784,30.784,0,0,1,5074.67,5507.73Z" transform="translate(-4977 -5379)"></path> </svg> 