<?xml version="1.0" encoding="UTF-8"?> <svg xmlns="http://www.w3.org/2000/svg" width="35.19" height="24.75" viewBox="0 0 35.19 24.75"> <defs> <style> .cls-1 { fill: #5f23f9; fill-rule: evenodd; } </style> </defs> <path id="quote_open" class="cls-1" d="M4726.67,6131.88l2.71-10.41h-8.12l-3.85,9.26a33.721,33.721,0,0,0-1.81,4.72,12.793,12.793,0,0,0-.41,3.15,7.236,7.236,0,0,0,2.26,5.5,7.96,7.96,0,0,0,5.7,2.13,7.847,7.847,0,0,0,5.66-2.13,7.307,7.307,0,0,0,2.21-5.5,6.974,6.974,0,0,0-4.35-6.72h0Zm19.36,0,2.7-10.41h-8.12l-3.85,9.26a32.161,32.161,0,0,0-1.8,4.72,12.334,12.334,0,0,0-.41,3.15,7.229,7.229,0,0,0,2.25,5.5,7.96,7.96,0,0,0,5.7,2.13,7.831,7.831,0,0,0,5.66-2.13,7.307,7.307,0,0,0,2.21-5.5,6.985,6.985,0,0,0-4.34-6.72h0Z" transform="translate(-4715.19 -6121.47)"></path> </svg> 