<?xml version="1.0" encoding="UTF-8"?> <svg xmlns="http://www.w3.org/2000/svg" width="35.19" height="24.75" viewBox="0 0 35.19 24.75"> <defs> <style> .cls-1 { fill: #5f23f9; fill-rule: evenodd; } </style> </defs> <path id="quote_close" class="cls-1" d="M5107.56,6372.81a7.748,7.748,0,0,0-5.61,2.17,7.249,7.249,0,0,0-2.26,5.46,7.4,7.4,0,0,0,1.19,4.22,6.854,6.854,0,0,0,3.24,2.58l-2.79,10.33h8.12l3.94-9.26a27.59,27.59,0,0,0,1.76-4.64,14.613,14.613,0,0,0,.37-3.23,7.249,7.249,0,0,0-2.26-5.46,7.864,7.864,0,0,0-5.7-2.17h0Zm19.36,0a7.756,7.756,0,0,0-5.62,2.17,7.249,7.249,0,0,0-2.26,5.46,7.4,7.4,0,0,0,1.19,4.22,6.854,6.854,0,0,0,3.24,2.58l-2.79,10.33h8.12l3.94-9.26a26.726,26.726,0,0,0,1.76-4.64,14.04,14.04,0,0,0,.37-3.23,7.249,7.249,0,0,0-2.26-5.46,7.856,7.856,0,0,0-5.69-2.17h0Z" transform="translate(-5099.69 -6372.81)"></path> </svg> 